<svg width="15" height="14" viewBox="0 0 15 14" fill="none" xmlns="http://www.w3.org/2000/svg">
<path d="M1.66675 1.75H5.16675C5.78559 1.75 6.37908 1.99583 6.81666 2.43342C7.25425 2.871 7.50008 3.46449 7.50008 4.08333V12.25C7.50008 11.7859 7.31571 11.3408 6.98752 11.0126C6.65933 10.6844 6.21421 10.5 5.75008 10.5H1.66675V1.75Z" stroke="#38505A" stroke-linecap="round" stroke-linejoin="round"/>
<path d="M13.3333 1.75H9.83333C9.21449 1.75 8.621 1.99583 8.18342 2.43342C7.74583 2.871 7.5 3.46449 7.5 4.08333V12.25C7.5 11.7859 7.68437 11.3408 8.01256 11.0126C8.34075 10.6844 8.78587 10.5 9.25 10.5H13.3333V1.75Z" stroke="#38505A" stroke-linecap="round" stroke-linejoin="round"/>
</svg>
