<svg width="14" height="14" viewBox="0 0 14 14" fill="none" xmlns="http://www.w3.org/2000/svg">
<path d="M3.625 13H1.75C1.41848 13 1.10054 12.8683 0.866116 12.6339C0.631696 12.3995 0.5 12.0815 0.5 11.75V7.375C0.5 7.04348 0.631696 6.72554 0.866116 6.49112C1.10054 6.2567 1.41848 6.125 1.75 6.125H3.625M8 4.875V2.375C8 1.87772 7.80246 1.40081 7.45083 1.04917C7.09919 0.697544 6.62228 0.5 6.125 0.5L3.625 6.125V13H10.675C10.9765 13.0034 11.269 12.8978 11.4987 12.7025C11.7284 12.5073 11.8798 12.2356 11.925 11.9375L12.7875 6.3125C12.8147 6.13335 12.8026 5.95042 12.7521 5.77641C12.7016 5.60239 12.6138 5.44143 12.4949 5.3047C12.376 5.16796 12.2288 5.05871 12.0635 4.98451C11.8982 4.91031 11.7187 4.87295 11.5375 4.875H8Z" stroke="#585672" stroke-linecap="round" stroke-linejoin="round"/>
</svg>
