<svg width="225" height="32" viewBox="0 0 225 32" fill="none" xmlns="http://www.w3.org/2000/svg">
<g clip-path="url(#clip0_1969_3211)">
<path d="M0 14.3162C0.231672 13.3002 0.388678 12.2583 0.709669 11.2703C2.29578 6.38561 5.40521 2.81214 10.2396 1.07599C17.293 -1.45634 24.4414 1.15485 28.5794 6.95432C29.8042 8.73692 30.6532 10.7503 31.0747 12.8717C31.4961 14.9931 31.4811 17.1781 31.0306 19.2935C30.5801 21.4089 29.7035 23.4104 28.4543 25.176C27.2051 26.9417 25.6094 28.4344 23.7645 29.5632C17.829 33.2211 10.4671 32.4166 5.04165 27.5522C2.28136 25.0546 0.534625 21.6302 0.133281 17.9294C0.101686 17.7977 0.05728 17.6694 0.000697423 17.5463L0 14.3162ZM23.6661 16.2749C23.9906 12.1062 20.5902 8.24107 16.2694 7.87053C14.1428 7.74375 12.0521 8.46145 10.4518 9.8676C8.85143 11.2738 7.87076 13.2547 7.72292 15.3799C7.57508 17.5051 8.27202 19.6028 9.66225 21.217C11.0525 22.8312 13.0236 23.8314 15.1473 24.0003C16.2146 24.0555 17.2823 23.8992 18.289 23.5403C19.2957 23.1814 20.2215 22.6271 21.0132 21.9091C21.8049 21.1912 22.4468 20.3238 22.9021 19.3569C23.3574 18.3899 23.617 17.3425 23.6661 16.2749Z" fill="#7D538F"/>
<path d="M59.3349 0.00146484C59.3489 2.33144 59.3698 4.66141 59.3754 6.99139C59.3866 11.3745 59.3931 15.7575 59.3949 20.1402C59.3949 24.0095 59.3949 27.8809 59.3949 31.8263H51.5586C51.5586 28.1126 51.5432 24.424 51.5725 20.7354C51.5781 20.0829 51.3869 19.9057 50.7449 19.9057C48.0728 19.9057 45.4007 19.8682 42.7286 19.7934C41.9896 19.771 41.8451 20.0292 41.8521 20.7124C41.8842 24.1484 41.866 27.5858 41.866 31.0231V31.8145H34.1707V0.203835L35.9989 0.00285969H42.007V11.9877H51.5104C51.537 11.7197 51.5649 11.5613 51.5663 11.4022C51.5663 9.09179 51.5523 6.78135 51.5663 4.47162C51.5746 2.9825 51.6207 1.49337 51.65 0.00564938L59.3349 0.00146484Z" fill="#7D538F"/>
<path d="M91.7868 0.00285241L92.3946 0.223355V31.6944H84.8248V14.3079L84.6364 14.2381L77.2738 27.5271C74.7861 23.05 72.3333 18.6357 69.8805 14.2227L69.727 14.273V31.5974C69.4912 31.6225 69.3118 31.6574 69.1346 31.6574C67.0621 31.663 64.9896 31.6491 62.9172 31.6728C62.3875 31.6784 62.1851 31.5395 62.1865 30.9652C62.2019 20.9326 62.2019 10.8993 62.1865 0.865336C62.1865 0.299415 62.3735 0.146592 62.9116 0.15357C65.005 0.181483 67.1007 0.184744 69.1988 0.163345C69.38 0.149207 69.561 0.193478 69.7152 0.289669C69.8694 0.38586 69.9887 0.528906 70.0557 0.697858C72.3017 4.80747 74.558 8.91151 76.8244 13.01C76.9444 13.2277 77.0756 13.4398 77.255 13.7426C77.4211 13.4956 77.5446 13.34 77.6395 13.1684C79.9259 9.00664 82.2071 4.84167 84.4829 0.673443C84.5556 0.494426 84.6848 0.344024 84.8508 0.245044C85.0167 0.146065 85.2105 0.103901 85.4026 0.12496C86.9859 0.148685 88.5692 0.131942 90.1511 0.117986C90.3722 0.0980017 90.5911 0.0580604 90.805 -0.00134277C91.1343 0.00284406 91.4616 0.00285241 91.7868 0.00285241Z" fill="#90D6E9"/>
<path d="M120.741 0.00142899C120.646 0.330625 120.524 0.651703 120.378 0.961615C117.664 5.74926 114.929 10.5257 112.229 15.3218C112.004 15.7492 111.887 16.2253 111.889 16.7083C111.874 21.593 111.889 26.4776 111.898 31.3622C111.889 31.4764 111.873 31.5899 111.85 31.7021H104.244C104.244 31.4983 104.244 31.2527 104.244 31.0043C104.227 26.1433 104.217 21.2831 104.178 16.4201C104.156 16.0497 104.044 15.6903 103.851 15.3734C101.132 10.5874 98.4022 5.80671 95.6631 1.03139C95.5165 0.774597 95.3839 0.510832 95.1851 0.138901H98.4215C99.6775 0.138901 100.934 0.15704 102.19 0.126337C102.381 0.102386 102.575 0.140596 102.743 0.235327C102.911 0.330058 103.045 0.476294 103.123 0.652481C104.621 3.31252 106.149 5.95581 107.668 8.60259C107.759 8.76099 107.866 8.90963 108.029 9.15735C108.32 8.66888 108.582 8.23973 108.827 7.8043C110.133 5.48689 111.431 3.16388 112.74 0.849261C112.911 0.549204 113.135 0.279159 113.334 -0.00415039L120.741 0.00142899Z" fill="#90D6E9"/>
<path d="M148.698 0.00146484C148.712 2.33144 148.733 4.66141 148.738 6.99139C148.749 11.3745 148.756 15.7575 148.758 20.1402C148.758 24.0095 148.758 27.8809 148.758 31.8263H140.921C140.921 28.1126 140.906 24.424 140.935 20.7354C140.941 20.0829 140.75 19.9057 140.108 19.9057C137.436 19.9057 134.764 19.8682 132.091 19.7934C131.352 19.771 131.208 20.0292 131.215 20.7124C131.247 24.1484 131.229 27.5858 131.229 31.0231V31.8145H123.533V0.203835L125.362 0.00285969H131.37V11.9877H140.873C140.9 11.7197 140.928 11.5613 140.929 11.4022C140.929 9.09179 140.915 6.78135 140.929 4.47162C140.937 2.9825 140.983 1.49337 141.013 0.00564938L148.698 0.00146484Z" fill="#E1B758"/>
<path d="M175.216 31.2555H168.209V28.4147C167.749 28.6938 167.357 28.7922 167.207 29.0427C166.734 29.8537 166.063 30.5308 165.256 31.0101C164.449 31.4895 163.533 31.7552 162.595 31.7823C160.485 31.8793 158.31 31.7048 156.454 30.3972C155.54 29.866 154.676 29.2534 153.872 28.5668C151.835 26.4769 151.29 23.872 151.655 21.0354C151.87 18.8939 152.814 16.8912 154.329 15.3622C155.526 14.0908 157.031 13.15 158.698 12.631C159.892 12.3589 161.114 12.2252 162.339 12.2326C164.059 12.1691 165.784 12.1907 167.502 12.2256C168.073 12.2367 168.253 12.0476 168.2 11.5013C168.14 10.8991 168.172 10.2857 168.09 9.68696C167.856 7.99269 167.094 7.21813 165.414 7.03111C164.399 6.91081 163.377 6.85696 162.355 6.86992C160.436 6.909 159.024 8.0234 157.693 9.25433C157.542 9.41834 157.399 9.59024 157.266 9.7693L152.632 4.10033C153.832 3.00536 155.224 2.14245 156.738 1.55543C157.568 1.14419 158.43 0.799784 159.315 0.525467C160.294 0.351741 161.286 0.265342 162.279 0.267283C164.526 0.141382 166.779 0.382725 168.948 0.981827C170.607 1.3932 172.091 2.32461 173.183 3.63982C174.274 4.95502 174.916 6.58501 175.015 8.29135C175.189 11.786 175.166 15.291 175.192 18.7912C175.222 22.7171 175.212 26.6416 175.219 30.5674C175.216 30.7768 175.216 30.9861 175.216 31.2555ZM165.059 18.8345V18.8164C164.244 18.8164 163.429 18.8359 162.616 18.8122C161.943 18.817 161.278 18.9695 160.67 19.2588C160.061 19.5482 159.524 19.9674 159.095 20.4869C157.845 21.8093 158.512 23.9976 160.253 24.6779C161.945 25.3081 163.798 25.354 165.519 24.8084C166.22 24.6476 166.851 24.2681 167.322 23.7248C167.793 23.1816 168.079 22.5026 168.138 21.7862C168.216 20.9483 168.226 20.1053 168.167 19.2658C168.16 19.1157 167.833 18.8659 167.643 18.8561C166.784 18.8059 165.92 18.8345 165.059 18.8345Z" fill="#E1B758"/>
<path d="M185.615 31.7669H178.009V29.7049C178.013 24.0471 178.018 18.3888 178.023 12.7301C178.023 8.76512 178.038 4.80159 178.013 0.835952C178.013 0.26724 178.179 0.125588 178.723 0.132566C181.004 0.160479 183.283 0.143725 185.614 0.143725L185.615 31.7669Z" fill="#E1B758"/>
<path d="M207.565 31.9993C207.466 31.9519 207.367 31.8647 207.266 31.8598C206.235 31.8272 205.229 31.5301 204.346 30.9969C203.462 30.4638 202.73 29.7125 202.221 28.8153C201.141 27.1405 200.247 25.3402 199.31 23.574C199.088 23.1553 198.9 22.923 198.377 22.9648C197.619 23.0249 196.851 22.9802 196.005 22.9802V31.7551H188.405V0.0991211C188.989 0.0991211 189.559 0.0991211 190.131 0.0991211C193.434 0.121451 196.739 0.144715 200.044 0.168906C201.557 0.175604 203.052 0.486735 204.441 1.08374C205.83 1.68075 207.085 2.55141 208.131 3.64381C209.176 4.7362 209.991 6.02796 210.527 7.44206C211.063 8.85616 211.308 10.3636 211.248 11.8746C211.225 13.5457 210.824 15.1899 210.078 16.685C209.331 18.1801 208.257 19.4878 206.935 20.5107C206.586 20.7995 206.541 21.0214 206.735 21.3836C207.111 22.0814 207.438 22.8057 207.845 23.4847C208.258 24.1753 208.836 24.7523 209.528 25.1639C210.22 25.5755 211.003 25.8087 211.807 25.8426C212.216 25.8817 212.622 25.9563 213.086 26.0219C213.166 26.6865 213.107 27.3604 212.912 28.0008C212.717 28.6411 212.391 29.2339 211.955 29.7412C211.091 30.8502 209.849 31.6014 208.466 31.8507C208.392 31.8647 208.332 31.9491 208.264 31.9993C208.031 31.9993 207.797 31.9993 207.565 31.9993ZM195.998 15.1822C196.43 15.1822 196.773 15.1864 197.114 15.1822C198.343 15.2306 199.574 15.2014 200.799 15.095C201.597 14.9041 202.311 14.4546 202.827 13.8164C203.344 13.1782 203.635 12.3871 203.656 11.5662C203.665 10.6864 203.35 9.83389 202.771 9.1716C202.192 8.50932 201.389 8.08367 200.515 7.97597C199.174 7.8794 197.827 7.86635 196.484 7.93689C196.371 7.97248 196.269 8.03645 196.187 8.1227C196.106 8.20895 196.048 8.31459 196.019 8.42953C195.987 10.6416 195.998 12.8536 195.998 15.1829V15.1822Z" fill="#E1B758"/>
<path d="M223.727 7.44006C223.629 8.34721 223.523 9.25436 223.437 10.1615C223.214 12.5487 222.99 14.938 222.783 17.328C222.66 18.7445 222.554 20.1618 222.473 21.5797C222.45 21.967 222.396 22.1819 221.937 22.1749C220.343 22.154 218.747 22.1666 217.047 22.1666C216.489 14.8682 215.754 7.56636 216.027 0.212186C216.963 0.140544 217.899 0.0693683 218.834 -0.00134277H223.726L223.727 7.44006Z" fill="#4F8454"/>
<path d="M215.921 27.7988C215.921 26.1198 217.814 24.1932 219.479 24.1751C220.524 24.1721 221.529 24.5777 222.279 25.3051C223.029 26.0326 223.464 27.0244 223.493 28.0688C223.473 29.0923 223.056 30.068 222.331 30.7904C221.606 31.5129 220.629 31.9256 219.605 31.9417C219.088 31.9192 218.582 31.7933 218.115 31.5714C217.648 31.3495 217.23 31.036 216.886 30.6497C216.543 30.2633 216.28 29.8119 216.114 29.3222C215.948 28.8325 215.883 28.3144 215.921 27.7988Z" fill="#4F8454"/>
</g>
<defs>
<clipPath id="clip0_1969_3211">
<rect width="224.417" height="32" fill="white"/>
</clipPath>
</defs>
</svg>
