<svg width="161" height="23" viewBox="0 0 161 23" fill="none" xmlns="http://www.w3.org/2000/svg">
<path d="M0 10.2899C0.166205 9.55965 0.278844 8.81084 0.509128 8.10065C1.64703 4.58981 3.87778 2.02138 7.34606 0.773527C12.4063 -1.04659 17.5346 0.830208 20.5033 4.99858C21.382 6.27982 21.9911 7.72692 22.2935 9.25167C22.5958 10.7764 22.585 12.3469 22.2618 13.8674C21.9386 15.3878 21.3098 16.8264 20.4136 18.0954C19.5174 19.3645 18.3726 20.4374 17.049 21.2487C12.7908 23.8779 7.50926 23.2996 3.61696 19.8033C1.63668 18.0082 0.383549 15.5469 0.0956179 12.8869C0.0729513 12.7923 0.0410936 12.7 0.000500342 12.6116L0 10.2899ZM16.9784 11.6978C17.2112 8.7015 14.7717 5.92342 11.6719 5.6571C10.1463 5.56598 8.64638 6.08182 7.49827 7.0925C6.35016 8.10317 5.64661 9.52699 5.54055 11.0545C5.43448 12.582 5.93448 14.0897 6.93185 15.2499C7.92923 16.4101 9.34337 17.129 10.8669 17.2504C11.6326 17.2901 12.3986 17.1777 13.1208 16.9198C13.843 16.6618 14.5072 16.2634 15.0752 15.7473C15.6432 15.2313 16.1037 14.6079 16.4303 13.9129C16.757 13.2179 16.9432 12.4651 16.9784 11.6978Z" fill="#866FB0"/>
<path d="M42.5066 0.000976562C42.5166 1.67565 42.5317 3.35031 42.5357 5.02498C42.5437 8.17538 42.5483 11.3256 42.5497 14.4757C42.5497 17.2567 42.5497 20.0393 42.5497 22.8751H36.9278C36.9278 20.2059 36.9167 17.5547 36.9378 14.9035C36.9418 14.4345 36.8046 14.3071 36.344 14.3071C34.427 14.3071 32.51 14.2802 30.5929 14.2264C30.0628 14.2103 29.9592 14.3959 29.9642 14.8869C29.9872 17.3566 29.9742 19.8272 29.9742 22.2978V22.8666H24.4534V0.14643L25.765 0.00197911H30.0753V8.61607H36.8932C36.9122 8.42348 36.9323 8.30962 36.9333 8.19527C36.9333 6.53464 36.9232 4.87402 36.9333 3.2139C36.9393 2.14359 36.9723 1.07328 36.9933 0.0039842L42.5066 0.000976562Z" fill="#866FB0"/>
<path d="M66.8668 0.00203873L67.3028 0.160525V22.7804H61.8721V10.2838L61.737 10.2336L56.455 19.7851C54.6703 16.5672 52.9106 13.3944 51.1509 10.2226L51.0408 10.2587V22.7106C50.8716 22.7287 50.7429 22.7538 50.6158 22.7538C49.1289 22.7578 47.6421 22.7477 46.1553 22.7648C45.7753 22.7688 45.6301 22.669 45.6311 22.2562C45.6421 15.0453 45.6421 7.83388 45.6311 0.621949C45.6311 0.215193 45.7653 0.105352 46.1513 0.110367C47.6531 0.130429 49.1566 0.132773 50.6618 0.117393C50.7918 0.107231 50.9216 0.139051 51.0323 0.208188C51.1429 0.277325 51.2285 0.38014 51.2766 0.501574C52.8879 3.45536 54.5066 6.40514 56.1326 9.3509C56.2187 9.50738 56.3128 9.65985 56.4414 9.87752C56.5606 9.69997 56.6492 9.58812 56.7173 9.46474C58.3576 6.47351 59.9942 3.47994 61.6268 0.484026C61.6791 0.355357 61.7717 0.247256 61.8908 0.176114C62.0099 0.104973 62.1488 0.0746673 62.2866 0.0898035C63.4226 0.106856 64.5584 0.0948218 65.6933 0.0847908C65.852 0.0704273 66.009 0.0417195 66.1624 -0.000976562C66.3987 0.00203273 66.6335 0.00203873 66.8668 0.00203873Z" fill="#96D4E9"/>
<path d="M87.3172 0.00108049C87.2487 0.23769 87.1615 0.468465 87.0564 0.691215C85.1095 4.13234 83.1471 7.56543 81.2102 11.0126C81.0488 11.3198 80.9651 11.662 80.9664 12.0092C80.9554 15.52 80.9664 19.0308 80.9724 22.5417C80.9662 22.6237 80.9548 22.7053 80.9384 22.7859H75.4817C75.4817 22.6395 75.4817 22.4629 75.4817 22.2844C75.4697 18.7906 75.4627 15.2973 75.4346 11.802C75.4189 11.5358 75.3383 11.2775 75.1998 11.0497C73.2488 7.60974 71.2907 4.17363 69.3256 0.741365C69.2205 0.556795 69.1253 0.367214 68.9827 0.0998886H71.3045C72.2056 0.0998886 73.1067 0.112926 74.0078 0.0908581C74.1452 0.0736434 74.2845 0.101106 74.4051 0.169194C74.5257 0.237282 74.6212 0.34239 74.6777 0.469024C75.7525 2.38093 76.8483 4.28079 77.9382 6.18317C78.0033 6.29702 78.0804 6.40385 78.197 6.5819C78.4058 6.23081 78.594 5.92236 78.7697 5.6094C79.7064 3.94375 80.6375 2.2741 81.5772 0.61046C81.6993 0.394794 81.86 0.200699 82.0032 -0.00292969L87.3172 0.00108049Z" fill="#96D4E9"/>
<path d="M106.941 0.000976562C106.951 1.67565 106.966 3.35031 106.97 5.02498C106.978 8.17538 106.983 11.3256 106.984 14.4757C106.984 17.2567 106.984 20.0393 106.984 22.8751H101.363C101.363 20.2059 101.352 17.5547 101.373 14.9035C101.377 14.4345 101.239 14.3071 100.779 14.3071C98.8618 14.3071 96.9448 14.2802 95.0278 14.2264C94.4976 14.2103 94.394 14.3959 94.399 14.8869C94.422 17.3566 94.409 19.8272 94.409 22.2978V22.8666H88.8882V0.14643L90.1998 0.00197911H94.5101V8.61607H101.328C101.347 8.42348 101.367 8.30962 101.368 8.19527C101.368 6.53464 101.358 4.87402 101.368 3.2139C101.374 2.14359 101.407 1.07328 101.428 0.0039842L106.941 0.000976562Z" fill="#E1B659"/>
<path d="M125.54 22.465H120.513V20.4232C120.183 20.6238 119.902 20.6945 119.794 20.8746C119.455 21.4575 118.973 21.9441 118.394 22.2887C117.816 22.6332 117.159 22.8242 116.485 22.8437C114.972 22.9134 113.412 22.788 112.08 21.8481C111.424 21.4663 110.804 21.026 110.228 20.5325C108.766 19.0304 108.375 17.1581 108.637 15.1193C108.791 13.5801 109.469 12.1407 110.556 11.0417C111.414 10.1279 112.494 9.45171 113.69 9.07867C114.547 8.88309 115.423 8.78699 116.302 8.79229C117.536 8.74665 118.773 8.7622 120.006 8.78728C120.416 8.7953 120.545 8.65938 120.507 8.26667C120.464 7.83384 120.487 7.39297 120.428 6.96264C120.26 5.74488 119.713 5.18817 118.508 5.05375C117.78 4.96728 117.047 4.92858 116.313 4.93789C114.937 4.96598 113.924 5.76695 112.969 6.65169C112.86 6.76957 112.758 6.89312 112.663 7.02182L109.338 2.94725C110.199 2.16024 111.197 1.54002 112.284 1.1181C112.879 0.822527 113.498 0.574982 114.133 0.377817C114.835 0.252951 115.546 0.190852 116.259 0.192247C117.871 0.101756 119.487 0.275221 121.044 0.705825C122.234 1.0015 123.298 1.67095 124.081 2.61626C124.864 3.56156 125.325 4.73312 125.396 5.95955C125.521 8.4713 125.504 10.9906 125.523 13.5063C125.544 16.3281 125.537 19.1488 125.542 21.9705C125.54 22.1209 125.54 22.2714 125.54 22.465ZM118.253 13.5374V13.5244C117.669 13.5244 117.084 13.5384 116.501 13.5214C116.018 13.5249 115.541 13.6345 115.104 13.8424C114.668 14.0504 114.282 14.3517 113.974 14.7251C113.078 15.6755 113.556 17.2484 114.805 17.7374C116.019 18.1903 117.349 18.2233 118.584 17.8312C119.086 17.7156 119.539 17.4429 119.877 17.0524C120.215 16.6619 120.42 16.1739 120.462 15.659C120.519 15.0567 120.526 14.4508 120.483 13.8474C120.478 13.7396 120.244 13.56 120.107 13.553C119.491 13.5169 118.871 13.5374 118.253 13.5374Z" fill="#E1B659"/>
<path d="M133.98 22.8326H128.523V21.3505C128.526 17.2839 128.53 13.2171 128.533 9.14984C128.533 6.30004 128.544 3.45125 128.526 0.600947C128.526 0.192186 128.645 0.0903735 129.035 0.0953889C130.672 0.115451 132.307 0.103409 133.979 0.103409L133.98 22.8326Z" fill="#E1B659"/>
<path d="M150.374 22.9996C150.303 22.9655 150.232 22.9028 150.16 22.8993C149.42 22.8758 148.698 22.6623 148.064 22.2791C147.431 21.8959 146.906 21.3559 146.54 20.711C145.765 19.5073 145.124 18.2133 144.452 16.9439C144.293 16.643 144.158 16.4759 143.783 16.506C143.239 16.5492 142.687 16.5171 142.081 16.5171V22.824H136.628V0.0712891C137.047 0.0712891 137.456 0.0712891 137.867 0.0712891C140.237 0.0873386 142.607 0.10406 144.979 0.121447C146.063 0.126262 147.136 0.349887 148.133 0.778987C149.13 1.20809 150.03 1.83387 150.78 2.61903C151.53 3.40419 152.115 4.33264 152.499 5.34903C152.883 6.36541 153.059 7.44891 153.017 8.53492C153 9.73599 152.712 10.9178 152.177 11.9924C151.641 13.067 150.87 14.0069 149.922 14.7421C149.672 14.9497 149.639 15.1092 149.779 15.3695C150.048 15.8711 150.283 16.3917 150.575 16.8797C150.871 17.376 151.286 17.7908 151.782 18.0866C152.278 18.3824 152.84 18.55 153.417 18.5744C153.71 18.6025 154.002 18.6562 154.335 18.7033C154.393 19.181 154.35 19.6653 154.21 20.1256C154.07 20.5859 153.836 21.0119 153.523 21.3766C152.904 22.1737 152.012 22.7136 151.02 22.8927C150.967 22.9028 150.924 22.9635 150.875 22.9996C150.708 22.9996 150.541 22.9996 150.374 22.9996ZM142.076 10.9123C142.386 10.9123 142.632 10.9153 142.877 10.9123C143.758 10.947 144.641 10.9261 145.52 10.8496C146.093 10.7124 146.604 10.3893 146.975 9.93057C147.346 9.47185 147.555 8.90324 147.569 8.31323C147.576 7.68087 147.35 7.06815 146.935 6.59214C146.519 6.11612 145.943 5.81018 145.317 5.73277C144.354 5.66336 143.388 5.65398 142.424 5.70468C142.343 5.73027 142.27 5.77624 142.212 5.83824C142.153 5.90023 142.112 5.97616 142.091 6.05877C142.068 7.64868 142.076 9.23859 142.076 10.9128V10.9123Z" fill="#E1B659"/>
<path d="M161 5.34753C160.93 5.99955 160.854 6.65156 160.792 7.30357C160.632 9.01937 160.472 10.7367 160.323 12.4545C160.235 13.4726 160.159 14.4913 160.101 15.5104C160.085 15.7888 160.046 15.9432 159.717 15.9382C158.573 15.9232 157.428 15.9322 156.208 15.9322C155.808 10.6865 155.281 5.43831 155.476 0.152497C156.148 0.101005 156.82 0.049847 157.49 -0.000976562H161L161 5.34753Z" fill="#4F8454"/>
<path d="M155.4 19.868C155.4 18.6613 156.759 17.2765 157.953 17.2634C158.703 17.2613 159.423 17.5528 159.961 18.0757C160.499 18.5986 160.812 19.3114 160.833 20.0621C160.818 20.7977 160.519 21.499 159.999 22.0182C159.479 22.5375 158.777 22.8341 158.043 22.8457C157.673 22.8296 157.309 22.7391 156.974 22.5795C156.639 22.42 156.339 22.1948 156.093 21.9171C155.846 21.6394 155.658 21.3149 155.539 20.9629C155.42 20.6109 155.373 20.2386 155.4 19.868Z" fill="#4F8454"/>
</svg>
